# Blender v2.79 (sub 0) OBJ File: ''
# www.blender.org
mtllib leftupperarm.mtl
o Patrick.007_Patrick.003
v -0.334215 1.816539 0.028911
v -0.315841 1.808019 0.045738
v -0.306148 1.850869 0.048934
v -0.324546 1.858472 0.031627
v -0.298155 1.802290 0.048475
v -0.283756 1.846243 0.053676
v -0.282932 1.798558 0.039690
v -0.265165 1.846689 0.039729
v -0.272246 1.797277 0.024311
v -0.254569 1.842589 0.023597
v -0.268163 1.796451 0.008109
v -0.252648 1.839768 0.007770
v -0.273062 1.797977 -0.006882
v -0.258727 1.841161 -0.007881
v -0.287414 1.804745 -0.024549
v -0.265025 1.846264 -0.025004
v -0.302134 1.816144 -0.030282
v -0.288338 1.854735 -0.038333
v -0.320309 1.812722 -0.027938
v -0.314999 1.862876 -0.033097
v -0.338625 1.820963 -0.012628
v -0.329535 1.864480 -0.015513
v -0.339050 1.822918 0.005558
v -0.330062 1.866792 0.005244
v -0.335634 1.800570 0.032239
v -0.321039 1.794936 0.046338
v -0.301196 1.789557 0.048636
v -0.287240 1.783853 0.043544
v -0.274752 1.779415 0.026843
v -0.270093 1.775589 0.008373
v -0.274967 1.776907 -0.008370
v -0.285588 1.781738 -0.024482
v -0.309157 1.788777 -0.033277
v -0.332103 1.796367 -0.028511
v -0.344135 1.800420 -0.013596
v -0.344529 1.803916 0.005757
v -0.347009 1.777068 0.034417
v -0.330170 1.764935 0.049365
v -0.310568 1.758832 0.050600
v -0.292305 1.764613 0.048011
v -0.274490 1.758380 0.031276
v -0.268856 1.754841 0.012330
v -0.274851 1.756280 -0.004794
v -0.291796 1.765423 -0.021351
v -0.319343 1.763177 -0.033088
v -0.334965 1.777001 -0.026818
v -0.358327 1.776771 -0.011862
v -0.358597 1.780320 0.010376
v -0.286076 1.708346 0.035683
v -0.279771 1.704445 0.017585
v -0.285830 1.706484 -0.000926
v -0.299134 1.712915 -0.018844
v -0.333471 1.726793 -0.022489
v -0.358410 1.733357 -0.019627
v -0.373294 1.736166 -0.010014
v -0.373552 1.740071 0.013885
v -0.362346 1.735165 0.041786
vt 0.781341 0.932634
vt 0.785935 0.917625
vt 0.760971 0.915418
vt 0.757143 0.927845
vt 0.787375 0.906319
vt 0.760443 0.906940
vt 0.787328 0.895245
vt 0.757193 0.896514
vt 0.785507 0.883615
vt 0.758027 0.884604
vt 0.783740 0.872780
vt 0.757979 0.876523
vt 0.781305 0.862564
vt 0.756227 0.867749
vt 0.776264 0.848821
vt 0.751618 0.858167
vt 0.769981 0.838382
vt 0.747664 0.842276
vt 0.765295 0.980601
vt 0.771714 0.971078
vt 0.744240 0.963640
vt 0.742227 0.979668
vt 0.773474 0.956311
vt 0.748540 0.951663
vt 0.775345 0.945744
vt 0.750092 0.940716
vt 0.789846 0.931226
vt 0.793007 0.918953
vt 0.794158 0.906430
vt 0.795489 0.896633
vt 0.794916 0.883478
vt 0.794442 0.870958
vt 0.792162 0.859956
vt 0.788231 0.848804
vt 0.784406 0.834340
vt 0.779636 0.984815
vt 0.782183 0.970848
vt 0.784796 0.959807
vt 0.785775 0.947774
vt 0.804049 0.934036
vt 0.810466 0.920509
vt 0.811884 0.908279
vt 0.806503 0.897735
vt 0.806129 0.882802
vt 0.805389 0.870925
vt 0.803087 0.860328
vt 0.797114 0.846683
vt 0.798697 0.828859
vt 0.795386 0.986876
vt 0.792063 0.974905
vt 0.799973 0.961523
vt 0.800806 0.948929
vt 0.834674 0.880547
vt 0.833756 0.867654
vt 0.831106 0.855511
vt 0.826849 0.842439
vt 0.822608 0.823632
vt 0.820326 0.988077
vt 0.821273 0.975398
vt 0.823424 0.966151
vt 0.824504 0.952977
vt 0.829373 0.936775
vn -0.8196 0.1959 0.5384
vn -0.4091 0.0945 0.9076
vn -0.4382 0.0270 0.8985
vn -0.8504 0.1577 0.5020
vn 0.1742 -0.0508 0.9834
vn 0.2266 -0.1640 0.9601
vn 0.6542 -0.1433 0.7426
vn 0.6716 -0.2727 0.6889
vn 0.8868 -0.1984 0.4174
vn 0.8565 -0.3218 0.4036
vn 0.9753 -0.2156 -0.0476
vn 0.9370 -0.3436 -0.0625
vn 0.8690 -0.1811 -0.4604
vn 0.8212 -0.3282 -0.4669
vn 0.5944 -0.1446 -0.7910
vn 0.5507 -0.3125 -0.7740
vn 0.0941 -0.0497 -0.9943
vn 0.0773 -0.1856 -0.9796
vn -0.4306 0.1050 -0.8964
vn -0.4579 -0.0518 -0.8875
vn -0.8790 0.2247 -0.4206
vn -0.8972 0.1298 -0.4222
vn -0.9681 0.2235 0.1135
vn -0.9761 0.1948 0.0964
vn -0.7512 0.3191 0.5777
vn -0.3491 0.1815 0.9193
vn 0.1262 0.0614 0.9901
vn 0.5790 0.0204 0.8151
vn 0.8926 -0.0006 0.4508
vn 0.9992 -0.0288 -0.0270
vn 0.8719 -0.0830 -0.4826
vn 0.5739 -0.1071 -0.8119
vn 0.0784 -0.0030 -0.9969
vn -0.4232 0.1758 -0.8888
vn -0.8254 0.3438 -0.4477
vn -0.9156 0.3787 0.1350
vn -0.7340 0.3837 0.5603
vn -0.2847 0.1951 0.9386
vn 0.0476 0.0923 0.9946
vn 0.4574 0.0618 0.8871
vn 0.9073 -0.0142 0.4202
vn 0.9957 -0.0916 -0.0150
vn 0.8380 -0.1702 -0.5184
vn 0.5017 -0.2081 -0.8396
vn 0.0082 -0.1189 -0.9929
vn -0.4268 0.0717 -0.9015
vn -0.8116 0.3251 -0.4854
vn -0.8843 0.4366 0.1656
vn 0.9322 -0.1728 0.3180
vn 0.9797 -0.2003 -0.0074
vn 0.8354 -0.2019 -0.5113
vn 0.5127 -0.1750 -0.8405
vn -0.0398 -0.1353 -0.9900
vn -0.4308 0.0698 -0.8997
vn -0.8114 0.2863 -0.5095
vn -0.9101 0.3771 0.1720
vn -0.8277 0.3736 0.4188
usemtl patrik_mat_patrik_skin.jpg.019
s 1
f 1/1/1 2/2/2 3/3/3 4/4/4
f 2/2/2 5/5/5 6/6/6 3/3/3
f 5/5/5 7/7/7 8/8/8 6/6/6
f 7/7/7 9/9/9 10/10/10 8/8/8
f 9/9/9 11/11/11 12/12/12 10/10/10
f 11/11/11 13/13/13 14/14/14 12/12/12
f 13/13/13 15/15/15 16/16/16 14/14/14
f 15/15/15 17/17/17 18/18/18 16/16/16
f 17/19/17 19/20/19 20/21/20 18/22/18
f 19/20/19 21/23/21 22/24/22 20/21/20
f 21/23/21 23/25/23 24/26/24 22/24/22
f 23/25/23 1/1/1 4/4/4 24/26/24
f 25/27/25 26/28/26 2/2/2 1/1/1
f 26/28/26 27/29/27 5/5/5 2/2/2
f 27/29/27 28/30/28 7/7/7 5/5/5
f 28/30/28 29/31/29 9/9/9 7/7/7
f 29/31/29 30/32/30 11/11/11 9/9/9
f 30/32/30 31/33/31 13/13/13 11/11/11
f 31/33/31 32/34/32 15/15/15 13/13/13
f 32/34/32 33/35/33 17/17/17 15/15/15
f 33/36/33 34/37/34 19/20/19 17/19/17
f 34/37/34 35/38/35 21/23/21 19/20/19
f 35/38/35 36/39/36 23/25/23 21/23/21
f 36/39/36 25/27/25 1/1/1 23/25/23
f 37/40/37 38/41/38 26/28/26 25/27/25
f 38/41/38 39/42/39 27/29/27 26/28/26
f 39/42/39 40/43/40 28/30/28 27/29/27
f 40/43/40 41/44/41 29/31/29 28/30/28
f 41/44/41 42/45/42 30/32/30 29/31/29
f 42/45/42 43/46/43 31/33/31 30/32/30
f 43/46/43 44/47/44 32/34/32 31/33/31
f 44/47/44 45/48/45 33/35/33 32/34/32
f 45/49/45 46/50/46 34/37/34 33/36/33
f 46/50/46 47/51/47 35/38/35 34/37/34
f 47/51/47 48/52/48 36/39/36 35/38/35
f 48/52/48 37/40/37 25/27/25 36/39/36
f 49/53/49 50/54/50 42/45/42 41/44/41
f 50/54/50 51/55/51 43/46/43 42/45/42
f 51/55/51 52/56/52 44/47/44 43/46/43
f 52/56/52 53/57/53 45/48/45 44/47/44
f 53/58/53 54/59/54 46/50/46 45/49/45
f 54/59/54 55/60/55 47/51/47 46/50/46
f 55/60/55 56/61/56 48/52/48 47/51/47
f 56/61/56 57/62/57 37/40/37 48/52/48
