# Blender v2.79 (sub 0) OBJ File: ''
# www.blender.org
mtllib rightshoulder.mtl
o Patrick.001
v 0.199914 1.965340 -0.024609
v 0.286557 2.001343 0.040204
v 0.313313 2.016793 0.021731
v 0.250232 1.979374 0.039890
v 0.227927 1.960531 0.032315
v 0.218533 1.944049 0.004335
v 0.214964 1.940552 -0.024784
v 0.219616 1.949274 -0.059173
v 0.237847 1.976179 -0.081932
v 0.267776 2.001276 -0.081363
v 0.304803 2.020567 -0.070984
v 0.326834 2.027764 -0.050176
v 0.330499 2.027249 -0.012591
v 0.316048 1.932546 0.043251
v 0.342186 1.951456 0.024413
v 0.282301 1.910924 0.043016
v 0.249442 1.907578 0.031386
v 0.235178 1.904461 0.008562
v 0.230690 1.899301 -0.022678
v 0.238438 1.907534 -0.056807
v 0.260365 1.921176 -0.076318
v 0.292554 1.940004 -0.083676
v 0.334250 1.955208 -0.075015
v 0.353598 1.963418 -0.047957
v 0.358306 1.963844 -0.010059
v 0.325900 1.911651 0.044111
v 0.352039 1.930561 0.025273
v 0.292153 1.890030 0.043875
v 0.262387 1.871776 0.026404
v 0.245756 1.865800 0.010231
v 0.243528 1.859719 -0.022273
v 0.250929 1.869320 -0.052782
v 0.275119 1.892934 -0.077150
v 0.309092 1.915654 -0.086373
v 0.343834 1.933818 -0.072584
v 0.363986 1.943514 -0.050239
v 0.368545 1.942915 -0.014462
v 0.318407 1.917513 0.037215
v 0.341361 1.934119 0.020671
v 0.288772 1.898526 0.037008
v 0.262635 1.882497 0.021665
v 0.252483 1.876491 0.007795
v 0.245530 1.872957 -0.025443
v 0.254164 1.879799 -0.043955
v 0.262287 1.903046 -0.064622
v 0.303647 1.921028 -0.077368
v 0.334157 1.936979 -0.065260
v 0.351852 1.945493 -0.045639
v 0.355856 1.944968 -0.014221
v 0.327585 1.954918 0.014087
v 0.311551 1.944291 0.027161
v 0.346786 1.890967 0.033143
v 0.362239 1.902108 0.014897
v 0.292590 1.933259 0.032898
v 0.326277 1.881434 0.038958
v 0.276635 1.922511 0.022638
v 0.307568 1.877172 0.025840
v 0.269670 1.929742 0.004254
v 0.297597 1.870271 0.010273
v 0.267994 1.926725 -0.012079
v 0.295775 1.866626 -0.005396
v 0.300757 1.868932 -0.021324
v 0.279640 1.925562 -0.043216
v 0.305035 1.874853 -0.038804
v 0.296680 1.933507 -0.052401
v 0.325217 1.888090 -0.053310
v 0.318248 1.942389 -0.050265
v 0.349444 1.902315 -0.049415
v 0.332862 1.954820 -0.034916
v 0.363878 1.907740 -0.032525
v 0.334958 1.955808 -0.012564
v 0.364655 1.910710 -0.011859
v 0.366022 1.851439 0.030346
v 0.381257 1.863481 0.012563
v 0.350266 1.841862 0.033972
v 0.335997 1.834463 0.025941
v 0.324744 1.830272 -0.020130
v 0.336443 1.839657 -0.038540
v 0.347886 1.853976 -0.045137
v 0.383577 1.870125 -0.011100
v 0.298308 1.959903 0.025920
v 0.318368 1.973228 0.012385
v 0.272245 1.944771 0.025625
v 0.330900 1.981981 -0.016302
v 0.249163 1.932042 0.012874
v 0.327150 1.982551 -0.042207
v 0.240152 1.927293 0.001403
v 0.311426 1.975887 -0.058451
v 0.233843 1.924559 -0.026010
v 0.284456 1.963311 -0.068561
v 0.239859 1.930573 -0.044463
v 0.246516 1.949724 -0.061483
v 0.315290 1.980281 0.013019
v 0.299255 1.969653 0.026093
v 0.280294 1.958621 0.031830
v 0.322662 1.981169 -0.013632
v 0.264339 1.947873 0.021570
v 0.320567 1.980182 -0.035984
v 0.257374 1.955104 0.003186
v 0.305952 1.967751 -0.051334
v 0.255698 1.952087 -0.013147
v 0.284385 1.958869 -0.053469
v 0.258114 1.941005 -0.028179
v 0.267345 1.950924 -0.044284
vt 0.918189 0.399665
vt 0.908213 0.408433
vt 0.882774 0.387042
vt 0.894141 0.378990
vt 0.894225 0.421021
vt 0.869265 0.398580
vt 0.880850 0.429024
vt 0.861690 0.415494
vt 0.873390 0.433478
vt 0.857305 0.422908
vt 0.870015 0.437153
vt 0.854511 0.425147
vt 0.649339 0.234335
vt 0.645068 0.234580
vt 0.660382 0.221191
vt 0.664843 0.222329
vt 0.628177 0.226935
vt 0.648648 0.210181
vt 0.613680 0.217448
vt 0.636531 0.199188
vt 0.600732 0.203899
vt 0.624721 0.183192
vt 0.594833 0.194821
vt 0.618731 0.175182
vt 0.594550 0.192001
vt 0.617915 0.172030
vt 0.924805 0.394819
vt 0.901440 0.374848
vt 0.875163 0.380169
vt 0.886530 0.372117
vt 0.861653 0.391706
vt 0.850070 0.402539
vt 0.845386 0.409338
vt 0.842490 0.410543
vt 0.671864 0.206793
vt 0.676864 0.207725
vt 0.658754 0.200345
vt 0.644756 0.189154
vt 0.632576 0.176319
vt 0.625856 0.168308
vt 0.625495 0.165156
vt 0.893859 0.367974
vt 0.867854 0.376071
vt 0.881074 0.367823
vt 0.856579 0.387086
vt 0.845628 0.397772
vt 0.843054 0.405098
vt 0.840633 0.408912
vt 0.672564 0.202454
vt 0.676817 0.205641
vt 0.661200 0.198218
vt 0.647594 0.186498
vt 0.635965 0.174528
vt 0.629554 0.168416
vt 0.627684 0.164813
vt 0.890160 0.365657
vt 0.721296 0.920797
vt 0.724228 0.909928
vt 0.760971 0.915418
vt 0.757143 0.927845
vt 0.724884 0.901625
vt 0.760443 0.906940
vt 0.721509 0.893037
vt 0.757193 0.896514
vt 0.719578 0.889032
vt 0.758027 0.884604
vt 0.720032 0.880283
vt 0.757979 0.876523
vt 0.719702 0.860571
vt 0.718290 0.848437
vt 0.747664 0.842276
vt 0.751618 0.858167
vt 0.712068 0.976683
vt 0.715782 0.962975
vt 0.744240 0.963640
vt 0.742227 0.979668
vt 0.716593 0.948104
vt 0.748540 0.951663
vt 0.719599 0.935583
vt 0.750092 0.940716
vt 0.785935 0.917625
vt 0.781341 0.932634
vt 0.787375 0.906319
vt 0.787328 0.895245
vt 0.756227 0.867749
vt 0.776264 0.848821
vt 0.781305 0.862564
vt 0.769981 0.838382
vt 0.775345 0.945744
vt 0.867854 0.376071
vt 0.881074 0.367823
vt 0.856579 0.387086
vt 0.890160 0.365657
vt 0.845628 0.397772
vt 0.627684 0.164813
vt 0.629554 0.168416
vt 0.843054 0.405098
vt 0.635965 0.174528
vt 0.840633 0.408912
vt 0.647594 0.186498
vt 0.672564 0.202454
vt 0.676817 0.205641
vt 0.661200 0.198218
vt 0.721296 0.920797
vt 0.724228 0.909928
vt 0.724884 0.901625
vt 0.719599 0.935583
vt 0.721509 0.893037
vt 0.716593 0.948104
vt 0.719578 0.889032
vt 0.715782 0.962975
vt 0.720032 0.880283
vt 0.712068 0.976683
vt 0.719702 0.860571
vt 0.718290 0.848437
vn 0.6509 0.3139 0.6912
vn 0.2384 0.1448 0.9603
vn 0.2193 0.1403 0.9655
vn 0.6457 0.3093 0.6982
vn -0.1266 -0.0252 0.9916
vn -0.1763 -0.0652 0.9822
vn -0.5150 -0.2184 0.8289
vn -0.5708 -0.2339 0.7871
vn -0.8702 -0.3342 0.3620
vn -0.8739 -0.3102 0.3742
vn -0.9239 -0.3792 -0.0514
vn -0.9383 -0.3408 -0.0590
vn -0.6978 -0.3752 -0.6101
vn -0.7570 -0.3296 -0.5641
vn -0.2425 -0.1505 -0.9584
vn -0.3512 -0.1734 -0.9201
vn 0.0835 0.0492 -0.9953
vn 0.0328 0.0372 -0.9988
vn 0.4546 0.2251 -0.8618
vn 0.4591 0.2318 -0.8576
vn 0.8334 0.3520 -0.4261
vn 0.8269 0.3880 -0.4069
vn 0.9006 0.3901 0.1914
vn 0.8896 0.4106 0.2001
vn 0.6051 -0.7384 0.2979
vn 0.7179 -0.6689 0.1928
vn 0.4642 -0.8228 0.3280
vn 0.2292 -0.9393 0.2554
vn 0.0076 -0.9885 0.1512
vn 0.0162 -0.9999 -0.0046
vn 0.3259 -0.8789 -0.3483
vn 0.4814 -0.7564 -0.4428
vn 0.4484 -0.7939 -0.4108
vn 0.6112 -0.7035 -0.3627
vn 0.7654 -0.6113 -0.2014
vn 0.7809 -0.6246 0.0084
vn 0.0454 -0.4832 -0.8743
vn -0.3175 -0.6981 -0.6418
vn 0.4124 -0.2749 -0.8685
vn 0.6890 -0.1727 -0.7038
vn 0.9139 -0.1240 -0.3866
vn 0.9946 -0.0494 0.0912
vn 0.8965 0.0208 0.4425
vn 0.6470 -0.1064 0.7550
vn 0.1894 -0.4336 0.8810
vn -0.1621 -0.6732 0.7215
vn -0.4399 -0.8292 0.3448
vn -0.5187 -0.8316 -0.1985
vn 0.7100 0.4308 0.5571
vn 0.3505 0.2595 0.8999
vn 0.4009 0.2333 0.8859
vn 0.7478 0.4223 0.5123
vn -0.1460 -0.0134 0.9892
vn -0.1354 -0.0825 0.9874
vn -0.7069 -0.3392 0.6207
vn -0.5983 -0.3258 0.7321
vn -0.8776 -0.4196 0.2320
vn -0.8643 -0.4122 0.2881
vn -0.8991 -0.3952 0.1883
vn -0.8997 -0.3951 0.1856
vn -0.3944 -0.2346 -0.8885
vn -0.1555 -0.1071 -0.9820
vn -0.2078 -0.1781 -0.9618
vn -0.4623 -0.3966 -0.7931
vn 0.3562 0.1861 -0.9157
vn 0.3979 0.2656 -0.8781
vn 0.7769 0.4327 -0.4574
vn 0.7500 0.4992 -0.4340
vn 0.8663 0.4940 0.0735
vn 0.8512 0.5107 0.1210
vn 0.4347 0.1451 0.8888
vn 0.7863 0.3737 0.4921
vn -0.1035 -0.1493 0.9834
vn -0.4328 -0.3132 0.8453
vn -0.6745 -0.5191 -0.5250
vn -0.5424 -0.4719 -0.6951
vn -0.6754 -0.5137 -0.5291
vn -0.3269 -0.3477 -0.8788
vn 0.8826 0.4203 0.2107
vn -0.1066 -0.2997 -0.9481
vn -0.5496 -0.4693 -0.6912
vn 0.3247 -0.1120 -0.9392
vn -0.8067 -0.5596 -0.1900
vn 0.6504 0.0408 -0.7585
vn -0.7329 -0.5292 0.4276
vn 0.8841 0.1596 -0.4393
vn -0.3952 -0.3753 0.8385
vn 0.9676 0.2300 0.1041
vn 0.0196 -0.1666 0.9858
vn 0.8362 0.2286 0.4985
vn 0.5596 0.1064 0.8219
vn 0.7253 0.3759 0.5767
vn 0.3563 0.2111 0.9102
vn -0.1261 -0.0194 0.9918
vn 0.8959 0.4376 0.0767
vn -0.7409 -0.3347 0.5822
vn 0.8021 0.3691 -0.4694
vn -0.8895 -0.4241 0.1699
vn 0.3595 0.1354 -0.9233
vn -0.8896 -0.4241 0.1696
vn -0.1473 -0.1128 -0.9826
vn -0.3782 -0.2409 -0.8938
usemtl patrik_mat_patrik_skin.jpg
s 1
f 3/1/1 2/2/2 14/3/3 15/4/4
f 2/2/2 4/5/5 16/6/6 14/3/3
f 4/5/5 5/7/7 17/8/8 16/6/6
f 5/7/7 6/9/9 18/10/10 17/8/8
f 6/9/9 7/11/11 19/12/12 18/10/10
f 7/13/11 8/14/13 20/15/14 19/16/12
f 8/14/13 9/17/15 21/18/16 20/15/14
f 9/17/15 10/19/17 22/20/18 21/18/16
f 10/19/17 11/21/19 23/22/20 22/20/18
f 11/21/19 12/23/21 24/24/22 23/22/20
f 12/23/21 13/25/23 25/26/24 24/24/22
f 13/27/23 3/1/1 15/4/4 25/28/24
f 15/4/4 14/3/3 26/29/25 27/30/26
f 14/3/3 16/6/6 28/31/27 26/29/25
f 16/6/6 17/8/8 29/32/28 28/31/27
f 17/8/8 18/10/10 30/33/29 29/32/28
f 18/10/10 19/12/12 31/34/30 30/33/29
f 19/16/12 20/15/14 32/35/31 31/36/30
f 20/15/14 21/18/16 33/37/32 32/35/31
f 21/18/16 22/20/18 34/38/33 33/37/32
f 22/20/18 23/22/20 35/39/34 34/38/33
f 23/22/20 24/24/22 36/40/35 35/39/34
f 24/24/22 25/26/24 37/41/36 36/40/35
f 25/28/24 15/4/4 27/30/26 37/42/36
f 27/30/26 26/29/25 38/43/37 39/44/38
f 26/29/25 28/31/27 40/45/39 38/43/37
f 28/31/27 29/32/28 41/46/40 40/45/39
f 29/32/28 30/33/29 42/47/41 41/46/40
f 30/33/29 31/34/30 43/48/42 42/47/41
f 31/36/30 32/35/31 44/49/43 43/50/42
f 32/35/31 33/37/32 45/51/44 44/49/43
f 33/37/32 34/38/33 46/52/45 45/51/44
f 34/38/33 35/39/34 47/53/46 46/52/45
f 35/39/34 36/40/35 48/54/47 47/53/46
f 36/40/35 37/41/36 49/55/48 48/54/47
f 37/42/36 27/30/26 39/44/38 49/56/48
f 50/57/49 51/58/50 52/59/51 53/60/52
f 51/58/50 54/61/53 55/62/54 52/59/51
f 54/61/53 56/63/55 57/64/56 55/62/54
f 56/63/55 58/65/57 59/66/58 57/64/56
f 58/65/57 60/67/59 61/68/60 59/66/58
f 63/69/61 65/70/62 66/71/63 64/72/64
f 65/73/62 67/74/65 68/75/66 66/76/63
f 67/74/65 69/77/67 70/78/68 68/75/66
f 69/77/67 71/79/69 72/80/70 70/78/68
f 71/79/69 50/57/49 53/60/52 72/80/70
f 53/60/52 52/59/51 73/81/71 74/82/72
f 52/59/51 55/62/54 75/83/73 73/81/71
f 55/62/54 57/64/56 76/84/74 75/83/73
f 62/85/75 64/72/64 78/86/76 77/87/77
f 64/72/64 66/71/63 79/88/78 78/86/76
f 72/80/70 53/60/52 74/82/72 80/89/79
f 39/44/38 38/43/37 81/90/80 82/91/81
f 38/43/37 40/45/39 83/92/82 81/90/80
f 49/56/48 39/44/38 82/91/81 84/93/83
f 40/45/39 41/46/40 85/94/84 83/92/82
f 48/54/47 49/55/48 84/95/83 86/96/85
f 41/46/40 42/47/41 87/97/86 85/94/84
f 47/53/46 48/54/47 86/96/85 88/98/87
f 42/47/41 43/48/42 89/99/88 87/97/86
f 46/52/45 47/53/46 88/98/87 90/100/89
f 43/50/42 44/49/43 91/101/90 89/102/88
f 45/51/44 46/52/45 90/100/89 92/103/91
f 44/49/43 45/51/44 92/103/91 91/101/90
f 51/58/50 50/57/49 93/104/92 94/105/93
f 54/61/53 51/58/50 94/105/93 95/106/94
f 50/57/49 71/79/69 96/107/95 93/104/92
f 56/63/55 54/61/53 95/106/94 97/108/96
f 71/79/69 69/77/67 98/109/97 96/107/95
f 58/65/57 56/63/55 97/108/96 99/110/98
f 69/77/67 67/74/65 100/111/99 98/109/97
f 60/67/59 58/65/57 99/110/98 101/112/100
f 67/74/65 65/73/62 102/113/101 100/111/99
f 65/70/62 63/69/61 104/114/102 102/115/101
l 61 62
l 103 104
l 101 103
l 1 7
